<svg width="189" height="190" xmlns="http://www.w3.org/2000/svg" xmlns:xlink="http://www.w3.org/1999/xlink" xml:space="preserve" overflow="hidden"><g transform="translate(-896 -238)"><g><g><g><g><path d="M1044.84 300.031C1065.01 331.725 1055.66 373.767 1023.97 393.936 992.275 414.104 950.233 404.76 930.065 373.067 909.896 341.373 919.24 299.331 950.933 279.163 973.214 264.984 1001.69 264.984 1023.97 279.163L1023.97 274.544C989.731 254.382 945.63 265.793 925.469 300.031 905.307 334.269 916.718 378.37 950.956 398.531 985.194 418.693 1029.29 407.282 1049.46 373.044 1062.72 350.514 1062.72 322.561 1049.46 300.031Z" fill="#8A9E7E" fill-rule="nonzero" fill-opacity="1"/><path d="M1014.19 298.667C993.285 283.91 964.372 288.897 949.615 309.806 934.858 330.715 939.845 359.628 960.754 374.385 981.663 389.142 1010.58 384.155 1025.33 363.246 1036.64 347.227 1036.64 325.825 1025.33 309.806L1022.51 312.631C1035.7 331.973 1030.71 358.347 1011.37 371.538 992.027 384.729 965.653 379.743 952.462 360.401 939.271 341.058 944.257 314.685 963.599 301.494 978.007 291.668 996.961 291.668 1011.37 301.494Z" fill="#8A9E7E" fill-rule="nonzero" fill-opacity="1"/><path d="M987.547 319.719C989.197 319.719 990.837 319.964 992.416 320.445L995.489 317.374C984.941 312.977 972.826 317.963 968.429 328.511 964.032 339.059 969.018 351.174 979.566 355.571 990.114 359.968 1002.23 354.982 1006.63 344.434 1008.75 339.339 1008.75 333.606 1006.63 328.511L1003.55 331.584C1006.24 340.427 1001.26 349.775 992.413 352.464 983.571 355.152 974.223 350.164 971.534 341.322 968.845 332.48 973.833 323.132 982.676 320.443 984.255 319.962 985.896 319.719 987.547 319.719Z" fill="#8A9E7E" fill-rule="nonzero" fill-opacity="1"/><path d="M1069.1 273.683C1068.8 272.948 1068.08 272.469 1067.28 272.469L1051.53 272.469 1051.53 256.719C1051.53 255.631 1050.65 254.75 1049.56 254.75 1049.04 254.751 1048.54 254.958 1048.17 255.327L1030.45 273.046C1030.08 273.415 1029.88 273.915 1029.88 274.438L1029.88 291.341 986.155 335.061C985.373 335.817 985.351 337.063 986.107 337.845 986.862 338.627 988.108 338.649 988.89 337.893 988.907 337.878 988.923 337.861 988.939 337.845L1032.66 294.125 1049.56 294.125C1050.08 294.125 1050.59 293.917 1050.95 293.548L1068.67 275.829C1069.24 275.266 1069.41 274.419 1069.1 273.683ZM1033.81 275.253 1047.56 261.505C1047.58 261.487 1047.59 261.493 1047.59 261.519L1047.59 273.622 1033.81 287.404ZM1048.75 290.188 1036.6 290.188 1050.38 276.406 1062.48 276.406C1062.51 276.406 1062.51 276.422 1062.5 276.44Z" fill="#8A9E7E" fill-rule="nonzero" fill-opacity="1"/></g></g></g></g></g></svg>